<svg xmlns="http://www.w3.org/2000/svg" width="1120" height="430" viewBox="0 0 1120 430" role="img" aria-labelledby="title desc">
<title id="title">CiteProof benchmark comparison</title>
<desc id="desc">Grouped bars compare CiteProof, heuristic, NLI, and lexical baselines by accuracy, false-supported rate, and manual review rate across regression, challenge, diagnostic, and heldout layers.</desc>
<rect width="100%" height="100%" fill="#ffffff"/>
<style>text{font-family:-apple-system,BlinkMacSystemFont,"Segoe UI",sans-serif;fill:#111827}.axis{stroke:#374151;stroke-width:1}.grid{stroke:#d1d5db;stroke-width:.8}.tick{font-size:10.5px;fill:#4b5563}.label{font-size:13px;font-weight:600}.hint{font-size:11px;fill:#6b7280}.legend{font-size:12px}</style>
<rect x="354" y="18" width="14" height="14" fill="#1f77b4" rx="2"/>
<text class="legend" x="374" y="30">CiteProof</text>
<rect x="452" y="18" width="14" height="14" fill="#9467bd" rx="2"/>
<text class="legend" x="472" y="30">Heuristic</text>
<rect x="570" y="18" width="14" height="14" fill="#2ca02c" rx="2"/>
<text class="legend" x="590" y="30">NLI</text>
<rect x="668" y="18" width="14" height="14" fill="#d62728" rx="2"/>
<text class="legend" x="688" y="30">Lexical</text>
<text class="label" x="54" y="58">Accuracy</text>
<text class="hint" x="54" y="74">higher is better</text>
<line class="grid" x1="54" y1="368.0" x2="376.0" y2="368.0"/>
<text class="tick" x="46" y="372.0" text-anchor="end">0</text>
<line class="grid" x1="54" y1="300.0" x2="376.0" y2="300.0"/>
<text class="tick" x="46" y="304.0" text-anchor="end">0.25</text>
<line class="grid" x1="54" y1="232.0" x2="376.0" y2="232.0"/>
<text class="tick" x="46" y="236.0" text-anchor="end">0.50</text>
<line class="grid" x1="54" y1="164.0" x2="376.0" y2="164.0"/>
<text class="tick" x="46" y="168.0" text-anchor="end">0.75</text>
<line class="grid" x1="54" y1="96.0" x2="376.0" y2="96.0"/>
<text class="tick" x="46" y="100.0" text-anchor="end">1</text>
<line class="axis" x1="54" y1="368" x2="376" y2="368"/>
<line class="axis" x1="54" y1="96" x2="54" y2="368"/>
<rect x="61.8" y="96.0" width="14" height="272.0" fill="#1f77b4" rx="2"/>
<rect x="78.8" y="96.0" width="14" height="272.0" fill="#9467bd" rx="2"/>
<rect x="95.8" y="186.2" width="14" height="181.8" fill="#2ca02c" rx="2"/>
<rect x="112.8" y="310.6" width="14" height="57.4" fill="#d62728" rx="2"/>
<text class="tick" x="94.3" y="392" text-anchor="middle">Regression</text>
<rect x="142.3" y="96.0" width="14" height="272.0" fill="#1f77b4" rx="2"/>
<rect x="159.3" y="96.0" width="14" height="272.0" fill="#9467bd" rx="2"/>
<rect x="176.3" y="176.0" width="14" height="192.0" fill="#2ca02c" rx="2"/>
<rect x="193.3" y="288.0" width="14" height="80.0" fill="#d62728" rx="2"/>
<text class="tick" x="174.8" y="392" text-anchor="middle">Challenge</text>
<rect x="222.8" y="96.0" width="14" height="272.0" fill="#1f77b4" rx="2"/>
<rect x="239.8" y="96.0" width="14" height="272.0" fill="#9467bd" rx="2"/>
<rect x="256.8" y="141.3" width="14" height="226.7" fill="#2ca02c" rx="2"/>
<rect x="273.8" y="300.0" width="14" height="68.0" fill="#d62728" rx="2"/>
<text class="tick" x="255.3" y="392" text-anchor="middle">Diagnostic</text>
<rect x="303.3" y="170.8" width="14" height="197.2" fill="#1f77b4" rx="2"/>
<rect x="320.3" y="177.6" width="14" height="190.4" fill="#9467bd" rx="2"/>
<rect x="337.3" y="204.8" width="14" height="163.2" fill="#2ca02c" rx="2"/>
<rect x="354.3" y="245.6" width="14" height="122.4" fill="#d62728" rx="2"/>
<text class="tick" x="335.8" y="392" text-anchor="middle">Heldout</text>
<text class="label" x="412" y="58">False-supported</text>
<text class="hint" x="412" y="74">lower is better</text>
<line class="grid" x1="412" y1="368.0" x2="734.0" y2="368.0"/>
<text class="tick" x="404" y="372.0" text-anchor="end">0</text>
<line class="grid" x1="412" y1="300.0" x2="734.0" y2="300.0"/>
<text class="tick" x="404" y="304.0" text-anchor="end">0.25</text>
<line class="grid" x1="412" y1="232.0" x2="734.0" y2="232.0"/>
<text class="tick" x="404" y="236.0" text-anchor="end">0.50</text>
<line class="grid" x1="412" y1="164.0" x2="734.0" y2="164.0"/>
<text class="tick" x="404" y="168.0" text-anchor="end">0.75</text>
<line class="grid" x1="412" y1="96.0" x2="734.0" y2="96.0"/>
<text class="tick" x="404" y="100.0" text-anchor="end">1</text>
<line class="axis" x1="412" y1="368" x2="734" y2="368"/>
<line class="axis" x1="412" y1="96" x2="412" y2="368"/>
<rect x="419.8" y="368.0" width="14" height="0.0" fill="#1f77b4" rx="2"/>
<rect x="436.8" y="368.0" width="14" height="0.0" fill="#9467bd" rx="2"/>
<rect x="453.8" y="324.3" width="14" height="43.7" fill="#2ca02c" rx="2"/>
<rect x="470.8" y="186.2" width="14" height="181.8" fill="#d62728" rx="2"/>
<text class="tick" x="452.3" y="392" text-anchor="middle">Regression</text>
<rect x="500.3" y="368.0" width="14" height="0.0" fill="#1f77b4" rx="2"/>
<rect x="517.3" y="368.0" width="14" height="0.0" fill="#9467bd" rx="2"/>
<rect x="534.3" y="368.0" width="14" height="0.0" fill="#2ca02c" rx="2"/>
<rect x="551.3" y="224.0" width="14" height="144.0" fill="#d62728" rx="2"/>
<text class="tick" x="532.8" y="392" text-anchor="middle">Challenge</text>
<rect x="580.8" y="368.0" width="14" height="0.0" fill="#1f77b4" rx="2"/>
<rect x="597.8" y="368.0" width="14" height="0.0" fill="#9467bd" rx="2"/>
<rect x="614.8" y="368.0" width="14" height="0.0" fill="#2ca02c" rx="2"/>
<rect x="631.8" y="345.3" width="14" height="22.7" fill="#d62728" rx="2"/>
<text class="tick" x="613.3" y="392" text-anchor="middle">Diagnostic</text>
<rect x="661.3" y="368.0" width="14" height="0.0" fill="#1f77b4" rx="2"/>
<rect x="678.3" y="368.0" width="14" height="0.0" fill="#9467bd" rx="2"/>
<rect x="695.3" y="368.0" width="14" height="0.0" fill="#2ca02c" rx="2"/>
<rect x="712.3" y="361.2" width="14" height="6.8" fill="#d62728" rx="2"/>
<text class="tick" x="693.8" y="392" text-anchor="middle">Heldout</text>
<text class="label" x="770" y="58">Manual review</text>
<text class="hint" x="770" y="74">lower is better</text>
<line class="grid" x1="770" y1="368.0" x2="1092.0" y2="368.0"/>
<text class="tick" x="762" y="372.0" text-anchor="end">0</text>
<line class="grid" x1="770" y1="300.0" x2="1092.0" y2="300.0"/>
<text class="tick" x="762" y="304.0" text-anchor="end">0.25</text>
<line class="grid" x1="770" y1="232.0" x2="1092.0" y2="232.0"/>
<text class="tick" x="762" y="236.0" text-anchor="end">0.50</text>
<line class="grid" x1="770" y1="164.0" x2="1092.0" y2="164.0"/>
<text class="tick" x="762" y="168.0" text-anchor="end">0.75</text>
<line class="grid" x1="770" y1="96.0" x2="1092.0" y2="96.0"/>
<text class="tick" x="762" y="100.0" text-anchor="end">1</text>
<line class="axis" x1="770" y1="368" x2="1092" y2="368"/>
<line class="axis" x1="770" y1="96" x2="770" y2="368"/>
<rect x="777.8" y="321.5" width="14" height="46.5" fill="#1f77b4" rx="2"/>
<rect x="794.8" y="321.5" width="14" height="46.5" fill="#9467bd" rx="2"/>
<rect x="811.8" y="365.3" width="14" height="2.7" fill="#2ca02c" rx="2"/>
<rect x="828.8" y="327.0" width="14" height="41.0" fill="#d62728" rx="2"/>
<text class="tick" x="810.3" y="392" text-anchor="middle">Regression</text>
<rect x="858.3" y="336.0" width="14" height="32.0" fill="#1f77b4" rx="2"/>
<rect x="875.3" y="336.0" width="14" height="32.0" fill="#9467bd" rx="2"/>
<rect x="892.3" y="336.0" width="14" height="32.0" fill="#2ca02c" rx="2"/>
<rect x="909.3" y="288.0" width="14" height="80.0" fill="#d62728" rx="2"/>
<text class="tick" x="890.8" y="392" text-anchor="middle">Challenge</text>
<rect x="938.8" y="345.3" width="14" height="22.7" fill="#1f77b4" rx="2"/>
<rect x="955.8" y="345.3" width="14" height="22.7" fill="#9467bd" rx="2"/>
<rect x="972.8" y="368.0" width="14" height="0.0" fill="#2ca02c" rx="2"/>
<rect x="989.8" y="186.7" width="14" height="181.3" fill="#d62728" rx="2"/>
<text class="tick" x="971.3" y="392" text-anchor="middle">Diagnostic</text>
<rect x="1019.3" y="279.6" width="14" height="88.4" fill="#1f77b4" rx="2"/>
<rect x="1036.3" y="286.4" width="14" height="81.6" fill="#9467bd" rx="2"/>
<rect x="1053.3" y="361.2" width="14" height="6.8" fill="#2ca02c" rx="2"/>
<rect x="1070.3" y="232.0" width="14" height="136.0" fill="#d62728" rx="2"/>
<text class="tick" x="1051.8" y="392" text-anchor="middle">Heldout</text>
</svg>
