<svg xmlns="http://www.w3.org/2000/svg" width="1040" height="400" viewBox="0 0 1040 400" role="img" aria-labelledby="title desc">
<title id="title">CiteProof benchmark comparison</title>
<desc id="desc">Grouped bars compare CiteProof, NLI, and lexical baselines by accuracy, false-supported rate, and manual review rate across regression, challenge, and heldout layers.</desc>
<rect width="100%" height="100%" fill="#ffffff"/>
<style>text{font-family:-apple-system,BlinkMacSystemFont,"Segoe UI",sans-serif;fill:#111827}.axis{stroke:#374151;stroke-width:1}.grid{stroke:#d1d5db;stroke-width:.8}.tick{font-size:11px;fill:#4b5563}.label{font-size:13px;font-weight:600}.hint{font-size:11px;fill:#6b7280}.legend{font-size:12px}</style>
<rect x="382" y="18" width="14" height="14" fill="#1f77b4" rx="2"/>
<text class="legend" x="402" y="30">CiteProof</text>
<rect x="486" y="18" width="14" height="14" fill="#2ca02c" rx="2"/>
<text class="legend" x="506" y="30">NLI</text>
<rect x="590" y="18" width="14" height="14" fill="#d62728" rx="2"/>
<text class="legend" x="610" y="30">Lexical</text>
<text class="label" x="54" y="58">Accuracy</text>
<text class="hint" x="54" y="74">higher is better</text>
<line class="grid" x1="54" y1="348.0" x2="349.3" y2="348.0"/>
<text class="tick" x="46" y="352.0" text-anchor="end">0</text>
<line class="grid" x1="54" y1="283.5" x2="349.3" y2="283.5"/>
<text class="tick" x="46" y="287.5" text-anchor="end">0.25</text>
<line class="grid" x1="54" y1="219.0" x2="349.3" y2="219.0"/>
<text class="tick" x="46" y="223.0" text-anchor="end">0.50</text>
<line class="grid" x1="54" y1="154.5" x2="349.3" y2="154.5"/>
<text class="tick" x="46" y="158.5" text-anchor="end">0.75</text>
<line class="grid" x1="54" y1="90.0" x2="349.3" y2="90.0"/>
<text class="tick" x="46" y="94.0" text-anchor="end">1</text>
<line class="axis" x1="54" y1="348" x2="349.3333333333333" y2="348"/>
<line class="axis" x1="54" y1="90" x2="54" y2="348"/>
<rect x="69.2" y="90.0" width="20" height="258.0" fill="#1f77b4" rx="2"/>
<rect x="93.2" y="175.6" width="20" height="172.4" fill="#2ca02c" rx="2"/>
<rect x="117.2" y="293.5" width="20" height="54.5" fill="#d62728" rx="2"/>
<text class="tick" x="103.2" y="370" text-anchor="middle">Regression</text>
<rect x="167.7" y="90.0" width="20" height="258.0" fill="#1f77b4" rx="2"/>
<rect x="191.7" y="165.9" width="20" height="182.1" fill="#2ca02c" rx="2"/>
<rect x="215.7" y="272.1" width="20" height="75.9" fill="#d62728" rx="2"/>
<text class="tick" x="201.7" y="370" text-anchor="middle">Challenge</text>
<rect x="266.1" y="128.7" width="20" height="219.3" fill="#1f77b4" rx="2"/>
<rect x="290.1" y="219.0" width="20" height="129.0" fill="#2ca02c" rx="2"/>
<rect x="314.1" y="219.0" width="20" height="129.0" fill="#d62728" rx="2"/>
<text class="tick" x="300.1" y="370" text-anchor="middle">Heldout</text>
<text class="label" x="385.3333333333333" y="58">False-supported</text>
<text class="hint" x="385.3333333333333" y="74">lower is better</text>
<line class="grid" x1="385.3333333333333" y1="348.0" x2="680.7" y2="348.0"/>
<text class="tick" x="377.3333333333333" y="352.0" text-anchor="end">0</text>
<line class="grid" x1="385.3333333333333" y1="283.5" x2="680.7" y2="283.5"/>
<text class="tick" x="377.3333333333333" y="287.5" text-anchor="end">0.25</text>
<line class="grid" x1="385.3333333333333" y1="219.0" x2="680.7" y2="219.0"/>
<text class="tick" x="377.3333333333333" y="223.0" text-anchor="end">0.50</text>
<line class="grid" x1="385.3333333333333" y1="154.5" x2="680.7" y2="154.5"/>
<text class="tick" x="377.3333333333333" y="158.5" text-anchor="end">0.75</text>
<line class="grid" x1="385.3333333333333" y1="90.0" x2="680.7" y2="90.0"/>
<text class="tick" x="377.3333333333333" y="94.0" text-anchor="end">1</text>
<line class="axis" x1="385.3333333333333" y1="348" x2="680.6666666666666" y2="348"/>
<line class="axis" x1="385.3333333333333" y1="90" x2="385.3333333333333" y2="348"/>
<rect x="400.6" y="348.0" width="20" height="0.0" fill="#1f77b4" rx="2"/>
<rect x="424.6" y="306.5" width="20" height="41.5" fill="#2ca02c" rx="2"/>
<rect x="448.6" y="175.6" width="20" height="172.4" fill="#d62728" rx="2"/>
<text class="tick" x="434.6" y="370" text-anchor="middle">Regression</text>
<rect x="499.0" y="348.0" width="20" height="0.0" fill="#1f77b4" rx="2"/>
<rect x="523.0" y="348.0" width="20" height="0.0" fill="#2ca02c" rx="2"/>
<rect x="547.0" y="211.4" width="20" height="136.6" fill="#d62728" rx="2"/>
<text class="tick" x="533.0" y="370" text-anchor="middle">Challenge</text>
<rect x="597.4" y="348.0" width="20" height="0.0" fill="#1f77b4" rx="2"/>
<rect x="621.4" y="348.0" width="20" height="0.0" fill="#2ca02c" rx="2"/>
<rect x="645.4" y="335.1" width="20" height="12.9" fill="#d62728" rx="2"/>
<text class="tick" x="631.4" y="370" text-anchor="middle">Heldout</text>
<text class="label" x="716.6666666666666" y="58">Manual review</text>
<text class="hint" x="716.6666666666666" y="74">lower is better</text>
<line class="grid" x1="716.6666666666666" y1="348.0" x2="1012.0" y2="348.0"/>
<text class="tick" x="708.6666666666666" y="352.0" text-anchor="end">0</text>
<line class="grid" x1="716.6666666666666" y1="283.5" x2="1012.0" y2="283.5"/>
<text class="tick" x="708.6666666666666" y="287.5" text-anchor="end">0.25</text>
<line class="grid" x1="716.6666666666666" y1="219.0" x2="1012.0" y2="219.0"/>
<text class="tick" x="708.6666666666666" y="223.0" text-anchor="end">0.50</text>
<line class="grid" x1="716.6666666666666" y1="154.5" x2="1012.0" y2="154.5"/>
<text class="tick" x="708.6666666666666" y="158.5" text-anchor="end">0.75</text>
<line class="grid" x1="716.6666666666666" y1="90.0" x2="1012.0" y2="90.0"/>
<text class="tick" x="708.6666666666666" y="94.0" text-anchor="end">1</text>
<line class="axis" x1="716.6666666666666" y1="348" x2="1012" y2="348"/>
<line class="axis" x1="716.6666666666666" y1="90" x2="716.6666666666666" y2="348"/>
<rect x="731.9" y="303.9" width="20" height="44.1" fill="#1f77b4" rx="2"/>
<rect x="755.9" y="345.4" width="20" height="2.6" fill="#2ca02c" rx="2"/>
<rect x="779.9" y="309.1" width="20" height="38.9" fill="#d62728" rx="2"/>
<text class="tick" x="765.9" y="370" text-anchor="middle">Regression</text>
<rect x="830.3" y="317.7" width="20" height="30.3" fill="#1f77b4" rx="2"/>
<rect x="854.3" y="317.7" width="20" height="30.3" fill="#2ca02c" rx="2"/>
<rect x="878.3" y="272.1" width="20" height="75.9" fill="#d62728" rx="2"/>
<text class="tick" x="864.3" y="370" text-anchor="middle">Challenge</text>
<rect x="928.8" y="270.6" width="20" height="77.4" fill="#1f77b4" rx="2"/>
<rect x="952.8" y="335.1" width="20" height="12.9" fill="#2ca02c" rx="2"/>
<rect x="976.8" y="231.9" width="20" height="116.1" fill="#d62728" rx="2"/>
<text class="tick" x="962.8" y="370" text-anchor="middle">Heldout</text>
</svg>